<mxfile host="app.diagrams.net" agent="Mozilla/5.0 (Windows NT 10.0; Win64; x64) AppleWebKit/537.36 (KHTML, like Gecko) Chrome/132.0.0.0 Safari/537.36" version="26.0.11">
  <diagram name="Page-0" id="Page-0">
    <mxGraphModel dx="5325.24" dy="2017" grid="1" gridSize="10" guides="1" tooltips="1" connect="1" arrows="1" fold="1" page="1" pageScale="1" pageWidth="2145.24" pageHeight="1160.99" math="0" shadow="0">
      <root>
        <mxCell id="0" />
        <mxCell id="1" parent="0" />
        <mxCell id="2" style="vsdxID=1;fillColor=none;gradientColor=none;image;aspect=fixed;image=data:image/png,/9j/4AAQSkZJRgABAQAAAQABAAD/2wBDAAgGBgcGBQgHBwcJCQgKDBQNDAsLDBkSEw8UHRofHh0aHBwgJC4nICIsIxwcKDcpLDAxNDQ0Hyc5PTgyPC4zNDL/2wBDAQkJCQwLDBgNDRgyIRwhMjIyMjIyMjIyMjIyMjIyMjIyMjIyMjIyMjIyMjIyMjIyMjIyMjIyMjIyMjIyMjIyMjL/wAARCAGwAyADASIAAhEBAxEB/8QAHwAAAQUBAQEBAQEAAAAAAAAAAAECAwQFBgcICQoL/8QAtRAAAgEDAwIEAwUFBAQAAAF9AQIDAAQRBRIhMUEGE1FhByJxFDKBkaEII0KxwRVS0fAkM2JyggkKFhcYGRolJicoKSo0NTY3ODk6Q0RFRkdISUpTVFVWV1hZWmNkZWZnaGlqc3R1dnd4eXqDhIWGh4iJipKTlJWWl5iZmqKjpKWmp6ipqrKztLW2t7i5usLDxMXGx8jJytLT1NXW19jZ2uHi4+Tl5ufo6erx8vP09fb3+Pn6/8QAHwEAAwEBAQEBAQEBAQAAAAAAAAECAwQFBgcICQoL/8QAtREAAgECBAQDBAcFBAQAAQJ3AAECAxEEBSExBhJBUQdhcRMiMoEIFEKRobHBCSMzUvAVYnLRChYkNOEl8RcYGRomJygpKjU2Nzg5OkNERUZHSElKU1RVVldYWVpjZGVmZ2hpanN0dXZ3eHl6goOEhYaHiImKkpOUlZaXmJmaoqOkpaanqKmqsrO0tba3uLm6wsPExcbHyMnK0tPU1dbX2Nna4uPk5ebn6Onq8vP09fb3+Pn6/9oADAMBAAIRAxEAPwD3+iiigAooooAKKytY8TaH4fQNq+rWdnnkLNKFZvovU/gKwf8AhaXhd+beXULlP78Gm3Dr+YSgDs6K5G2+J3g+4mWF9ZS0lbgJexPbn/yIoFdXDNFcQrNBKksTjKujBgR7EUAPooooAKKKKACiiigAooooAKKK5bVvHFrp2ry6VZ6Vqur3kCq1wmnQBxBu5UOzMACRzjrigDqaK4v/AIT+7/6EbxV/4Cxf/HKP+E/u/wDoRvFX/gLF/wDHKAO0ori/+E/u/wDoRvFX/gLF/wDHKP8AhP7v/oRvFX/gLF/8coA7SiuL/wCE/u/+hG8Vf+AsX/xyj/hP7v8A6EbxV/4Cxf8AxygDtKK4v/hP7v8A6EbxV/4Cxf8Axyj/AIT+7/6EbxV/4Cxf/HKAO0ori/8AhP7v/oRvFX/gLF/8co/4T+7/AOhG8Vf+AsX/AMcoA7SiuL/4T+7/AOhG8Vf+AsX/AMco/wCE/u/+hG8Vf+AsX/xygDtKK4v/AIT+7/6EbxV/4Cxf/HKP+E/u/wDoRvFX/gLF/wDHKAO0ori/+E/u/wDoRvFX/gLF/wDHKP8AhP7v/oRvFX/gLF/8coA7SiuL/wCE/u/+hG8Vf+AsX/xyj/hP7v8A6EbxV/4Cxf8AxygDtKK4v/hP7v8A6EbxV/4Cxf8Axyj/AIT+7HJ8DeKsf9esZ/8AalAHaUVnaHrdj4h0mLUtPkZ4JCRh1KujA4ZWU8hgQQRWjQAUUUUAFFFFABRRWZr+vWPhvS21DUGk8sOsaJEheSV2OFRFHJYntQBp0Vxf/Cf3f/QjeKv/AAFi/wDjlH/Cf3f/AEI3ir/wFi/+OUAdpRXF/wDCf3f/AEI3ir/wFi/+OUf8J/d/9CN4q/8AAWL/AOOUAdpRXF/8J/d/9CN4q/8AAWL/AOOUf8J/d/8AQjeKv/AWL/45QB2lFcX/AMJ/d/8AQjeKv/AWL/45R/wn93/0I3ir/wABYv8A45QB2lFcX/wn93/0I3ir/wABYv8A45R/wn93/wBCN4q/8BYv/jlAHaUVxf8Awn93/wBCN4q/8BYv/jlH/Cf3f/QjeKv/AAFi/wDjlAHaUVxf/Cf3f/QjeKv/AAFi/wDjlH/Cf3f/AEI3ir/wFi/+OUAdpRXF/wDCf3f/AEI3ir/wFi/+OUf8J/d/9CN4q/8AAWL/AOOUAdpRXF/8J/d/9CN4q/8AAWL/AOOUf8J/d/8AQjeKv/AWL/45QB2lFcX/AMJ/d/8AQjeKv/AWL/45R/wn93/0I3ir/wABYv8A45QB2lFcxo3je11TV10m60vVNJv5I2lgh1GAJ5yr97YQSCRnkZzXT0AFFFFABRRRQAUUUUAFFcdP8Qrc3lzBpega5q8dvK0MlzY2ytF5i8MoZmXJB4OOKZ/wn93/ANCN4q/8BYv/AI5QB2lFcX/wn93/ANCN4q/8BYv/AI5R/wAJ/d/9CN4q/wDAWL/45QB2lFcX/wAJ/d/9CN4q/wDAWL/45R/wn93/ANCN4q/8BYv/AI5QB2lFcX/wn93/ANCN4q/8BYv/AI5R/wAJ/d/9CN4q/wDAWL/45QB2lFcX/wAJ/d/9CN4q/wDAWL/45R/wn93/ANCN4q/8BYv/AI5QB2lFcX/wn93/ANCN4q/8BYv/AI5R/wAJ/d/9CN4q/wDAWL/45QB2lFcX/wAJ/d/9CN4q/wDAWL/45R/wn93/ANCN4q/8BYv/AI5QB2lFcX/wn93/ANCN4q/8BYv/AI5R/wAJ/d/9CN4q/wDAWL/45QB2lFcX/wAJ/d/9CN4q/wDAWL/45R/wn93/ANCN4q/8BYv/AI5QB2lFcX/wn93/ANCN4q/8BYv/AI5R/wAJ/d/9CN4q/wDAWL/45QB2lFcTJ8RWtomnvPB/ie2toxulne0RljUdWIVycD2FdhaXdvf2cN3ayrLbzoJIpFPDKRkEfhQBNRRRQAUUUUAFFFFAEF5eW2n2c15eTxwW0KF5JZGwqqOpJriI73xF49/eaZNNoHhtvu3ezF5eL/ejB/1SHsxG49QBSSxD4h+KZoJfm8L6LPseP+G/u15IPrHHxx0LeuK74AAAAYA6AUAc/ovgfw5oLGWz0yJrpjl7u4/fTufUyNk10NFFAEN1Z219CYbu3huIm6pKgdT+BrkLj4fRabK174PvpNBvM7jBHl7SY+jwngfVcEV2tFAHLeHvFst5qLaFr1mNM1+NS/kbt0Vyg/5aQt/EvqOo711NYfinw1B4l0wRGRra+t286yvY/v20o6MD6eo7ioPBviCfXNLli1GJYNZ0+U2uoQL0WUfxL/ssMMD7+1AHR0UUUAFFFFABRRRQAVxvg3/kavG//YUj/wDSeOuyrjfBv/I1eNv+wpH/AOk8dAHZUUUUAFFFFABRWLrmvvpN7p9lb6bcX91fGTy44XRMBFBJJcgd6TT/ABPZXdveveq2lzWDhLuG9dF8okAqdwJUqQeCD+tAG3RWLN4r0aK80m3W/glOqu6WrxyqyMVBJ5zzyMcZ5IFXrXVtNvrma2tNQtbieH/WxRTK7J25AORQBcorEv8AxEYNTk03T9NutSvIY1lnSBkRYVbO3czsBuODgDnjPFSw+JNKbTLW+urpNPjuSVRL5hA+4HBUhj1BHb+VAGtRWBc+K7S21o6Y0EzSC4t7feuNuZldlPXoNhz9RWpb6rp13dTWttf2s1xB/roo5lZo/wDeAOR+NAFuisK+8ZaBYWS3bapaSwm6jtS0M6MFd2wMnPGOSfYGrP8Ab+nRWhub27tbKLz3gVp7mMBirEcHOM8Zx1HcA0AalFUbnWtKs5UiutTs4JJNuxZZ1Utu+7gE85wceuKvUAFFFFABRRRQBxfw5/49vEn/AGMN9/6GK7SuL+HP/Ht4l/7GG9/9DFdpQAUUUUAFFFFABXF/EH/j58If9jDb/wDoEldpXF/EH/j58H/9jDb/APoElAHaUUUUAFFFFABRWJrXiCTStRsNPttMuL+6vVldEhkjTase3cSXYD+IUun+J7G7s7ua73aZJYyeVdxXrKhhYgEZYEqQQQQQcHNAG1RWLJ4r0ZNQ0qyS+glfVN/2Z45VZX2DnnPPPAxnmr1pq2m6hPLBZaha3MsP+tjhmV2T6gHigC5RXN3fim5i1i/0+y0C9vzYLGZ5IZYlHzruAAdwScVe0/xNo2pW9nLBqFurXkKzwwySKshQruztJz0B/I0Aa1FUbfWdLu7SW7ttSs5raHPmzRzqyJjruYHA/Gmtr2jrp66g2q2IsmbatwbhPLJ9A2cZoA0KKpT6xpdq1utxqVnC1zjyBJOqmXPTbk89R0pTq2nfb2sBfWpvlXcbYTL5gGM525zQBcorJh8R6U0Fo9xf2dtNcojJDJdR7suMgDDENntjIParM2s6Xb3osptSs47s4xA86hzk4Hyk55JGKALtFFFABRRRQBxfiv8A5KD4F/6+bv8A9J2rtK4vxX/yUHwL/wBfN3/6TtXaUAFFFFABRRRQAUUUUAcX8Kf+SfWn/Xzd/wDpRJXaVxfwp/5J7Z/9fN3/AOlEldpQAUUUUAFFFYOq+IprHWodKs9IudQuZLdrkiKWNAqBgvJdhzkigDeorFsvFOl3WlPf3M66csMzW86XrrG0Mo6oxzjPQjBIIIIpw8T6S2uW2kJeQvcXNq13EVkUq0YIHBzznJIx2UntQBsUVUsdV07VFkOn39rdiM7XNvMsm0+hweKoR+JrM6frF5OkkC6TLLHco+MjYu7I9mUgj60AbVFZdnr+n3TQ27XMEOoSQiVrF5k8+PK7iCoOciq+l+KLLUtPW/bbaWptIrsyTzINivuxuGcrjb1PB7E4NAG5RWJaeLNIuor+4N7bxWlncCBrqSZBE5KK4KtnGMOB9Qabd+LtItb22s1uoZprq0lu4NkyBZETHRicc5OD0+VueKAN2iqC61p3nW1vLfWsV3coHjt3nTzGBHYZ5+ozTo9Y0ua++wxajaPd/N+4WdTJ8pwflzngg5oAu0UUUAFFFFAFfUOdNuv+uL/yNc78NP8Akmfhz/rxj/lXRX//ACDrr/ri/wDI1zvw0/5Jn4c/68Y/5UAdVRRRQAUUUUAFc/431qXw/wCDdS1C3GbpYvLth6yuQif+PMK6CuL+ImJV8MWjf6u41+1Vx6hdz4/NBQBu+F9Di8N+GdP0mLn7PEBI/d5Dy7H3LEn8a16K8v8AHfijxBoviYxNqcmiaKLdXgvl0z7XFLLk7llbkxgcdB05oA9QorzXxhqPiWDStF1jSfFUMUF9NaWrJb2ccsTNK2GlRmycc5A9qzfFXjDxH4b1GKzt9YivU0S3ju9Zke3jR7pZJQAiqPukR7m+X2oA9coryLxv44v9O8ZNbQ+JLjS9IXS4rwS22mLd5ZnYZYkfKCMck4qTVNZ8bp8J4vFEmrf2bf20DSSwfYo2FypcBHO7OwlcHA9aAPWa4jVF/sH4oaTqUfy22uwtp90OxmjBeFj74Dr+VdH4ftNStNLVNV1Y6pcM28Tm3SHCkDC7V4455965/wCJY8vRdJvF4ktNaspVP1lCn9GNAHaUUUUAFFFFABRVKw1Wz1GW6hgk/f2kpinhYYeNu2R6Ecg9CDV2gArjfBv/ACNXjb/sKR/+k8ddlXG+Df8AkavG3/YUj/8ASeOgDsqKDwKj85fQ0ASUVH5y+ho85fQ0Ac54kttSHiDQdUsNNe/SzNwJo45URhvQAEbyAeRWDqGg+IL+W51htPWK4ur23Y2cckTzQwQo4DKzjy/M3OT3AHQ5r0Hzl9DR5y+hoA850rwxr1i1lcPYh5Y9Wu7grJOjlY5oSquxG0HDH5gMHrgGpPCfhzXLHxDpF3fWUkMNrp8trLumh2K7GMgRpGBhPlOMkt0zjqfQvOX0NHnL6GgDmprXVdF8TalqVjpp1K21JIi6RzJHJDLGu3+MgFSNvQ5BB4Oazp9M8QDUl1W/0ez1ae409rWS2ilVVt2MjMBmT7ylWVWI5OwHHOB23nL6Gjzl9DQB5zZeC9as57GN9sgt308NOsg6Qwyo7AHngsuO5qnp3gPWP7NTTZ47mGe20+4tUvHvIzCWkTblERN5DH5jvIx/tHmvUvOX0NHnL6GhgcFdaNql5ZxSx+FrWzltXsj5aTxmScQyhmVSPlCgZ27iCcngUlr4f1fTNU/tJtHTUkL36fZTNGDGJrgyK43HbhlwG5yOODyK77zl9DR5y+hoA85tfA2oQaLqtpcWtvPPL4fjsYG3AgSgzEopPIUb0AJx0HpXolojx2UCS/6xY1Dc55xzTvOX0NHnL6GgCSio/OX0NHnL6GgCSimrIGOBmnUAcX8Of+PbxL/2MN7/AOhiu0ri/hz/AMe3iX/sYb3/ANDFdpQAUUUUAFFUr7VrPTZ7SK8k8kXUnlRSMMJvxkKW6AnnGeuMdau0AFcX8Qf+Pnwf/wBjDb/+gSV2lcX8Qf8Aj58H/wDYw2//AKBJQB2lFFNaQKcHNADqKj85fQ0ecvoaAOc8Q2+px+JtE1Ww0yS/jtYrmOVI5o0ZTJ5e0/OwB+6awb7w/r920+rtYolzd6jDM9pFJE80EMURRSjSDy/M3HJ6gA4ByM16D5y+ho85fQ0Aeb6X4X1+xe0maxVpUvr98Szo+1Z0Gx2I25GfvBQD6A1Y8I+HdbsPEWm3l7ZywwW+mSWj75oCquWjIEaRAYT5WxnJ9cd/QPOX0NHnL6GgDkz4PGoeKtdvtQa8S1uhAsS299JEsirHtYMqMM88c1V1LwXNcf8ACRwWNtb28V1p9ra2ROAuIw+YzjlVOQPoe9dt5y+ho85fQ0AefX/hzV9Xu7jUl0WCxVEtFGnPMh+1+TN5hDFcqBj5Vz+IApupeHdYvdUttZh0d7JUlnL2dncwrO29I1ErFgY93yEEA/dI5JyK9D85fQ0ecvoaAPMbrwbrFvYWsWnac6z/AGHyObuKaNSZGfy51kQBoxuzmMAjkDjBrRTw7rcXiv7RDZqlu961zM7yRyW7BoypdAw82OU9ODt6+uK73zl9DR5y+hoA82tfBOpL4Z1W1nsIGvJtAtLGDLoT5saSBlz2wxXnp+VZ9/IkerSaJ9mtbu9l8RW915/nL5yDejEGM/PlVBG4Dbt53dq9Z85fQ03dF5nmbBvxjdgZx9aOtw6E1FR+cvoaPOX0NAElFR+cvoakoA4vxX/yUHwL/wBfN3/6TtXaVxfiv/koPgX/AK+bv/0nau0oAKKKKACimu2xGbaWwM4XqfpVXTNUs9YsEvbGYSwvkZ6FWHBVh1DA8EHkUAXKKKKAOL+FP/JPbP8A6+bv/wBKJK7SuL+FP/JPbP8A6+bv/wBKJK7MkKMmgBaKj85fQ0ecvoaAJK5XVotVtPGdtq9lpEuoW406S2YRTxoVcyKw++w4wD0rpvOX0NHnL6GgDzyfw54g86LUTZjz7q/nvLiK0kiMttujSONUeUbfup85Azzxx1qWfhLxDZaRbwLp1vJcf2Vf2REsyuiPJNvTd03KV44HU8gDNenecvoaPOX0NAXOL8I6Jqtj4mu9Qvba4it5rCGBDcTQs4ZGYkbYgFUYYYxn8OlTa74avr3xMhtkQ6TqPknVMsAQYG3Lgd9/CH2Wuu85fQ0ecvoaAPOF8NeIH8RWk8tkVig1mS8do5YVgMbbwGVQPML4Ybtx9cZ4qK08G63BYWhksopXtLTTN1s0q4naBpS8eenG9SCeCQK9M85fQ0ecvoaAPN28P6+1zNex6KLRJtXe7MFvLAZ0U26Rh1L5QEsG3d+eD6x2nhLXLbSLW3fTw8v2PVbV8XCMUM774iScZBxg4AwT0Ar0zzl9DR5y+hoA85l8K6yNP1DShpcMr6jJbSrqJmQfZdkcakEfeJQxkrtyDntzWjb+FryFbKQWcSzx+Ip7+RwV3eS7S4bPclWUY6/lXa+cvoaPOX0NF9bhYkoqPzl9DR5y+hoAkoqPzl9DTlcN0oAhv/8AkHXX/XF/5Gud+Gn/ACTPw5/14x/yror/AP5B11/1xf8Aka534af8kz8Of9eMf8qAOqooooAKKKKACuL+JZ+zaNpOqn/V6brFpcyH0TfsY/k9dpWdr2kQa/oF/pNx/qryBoSf7uRwfqDg/hQBo1ymueB49Y1K4vYNc1fTWu4hFdR2cyhJlAwMqynBxxkYqTwFrU2reG0t7/5dW01zZX8Z6iVON30YYYH3rp6AOduvBmmz+H9K0SJpoLPTJ4JoAjAkmI5UEkHOcc1Sk+Gnhq7utVu9UsY9Su9RmaV57qNWeIFQoRDjgKBx3rr6KAOS0f4f6dpUoeW5ub5f7KXSWS52kPCrEjOAOcHH0FKngKzXwFP4PbUL2SwkBSOR2UyRJuDBAccgYwMjpXWUUANRBHGqDkKAK434iH7SnhzSl5kvdatvl/2IyZWP4BK7SuHsG/4Sj4mXGood+m+Hons4H7PdyY80j/dUBfqTQB3FFFFAFDUdF03VjGdQs4rgx5CeYM7c9f5VS/4Q3w5/0B7X/vmtyigDmvD/AIJ0rQNXvtWhhQ392du9V2rHEPuxqOwwBk9Scn0A6WiigArjfBv/ACNXjb/sKR/+k8ddlXG+Df8AkavG3/YUj/8ASeOgDsW+6fpXN6nrp0nW4oLpUWwksZ7jzedweLaWX0xsJP4Gukb7p+lcv4r8Nf8ACTWVrbi5+zmG4Ds+3O+MgrIn/AlJGaAMnTPGOoXWnaet7a21vqc2oG2uosnZFEIzMX5Of9Xt68ZNasPjTRZYpJXluLaFbdrpJLm3eNZohjLx5HzDke/I45qO48Iw3Xim81aWf/Rrqya2a2VcYdhsaQH12AL07ViQfDOL+zZtPuZNNWI2htY5rXTxHMxypDyMScn5RlRgHnNAGve+M7dLZWt4pYJ0uraKaG/haFkilk2+Zg44xuwfUc1u6bqVvqtkt5aiU27k+W7oV8wD+JQeqnse/WuS/wCFex3FnNBeJo6rNPbtJFaaf5SPHE+9lbLEtu6YzgeldLoWmTaNpv2CS6+0QQuwtWYHckP8KMf4io4z6AUAVPDuuX2sX+r297p32E2c0aRxGQO5VkDAuQSM89B096r+JtZ1rRor2+t7exXT7KFZCblm33TknMabT8p6AEg5LAYq3/wjltPda218EubXVHhZoCCNoRAuCQeeVzWVd+E9RXVrSbTbnTU02wjAsrG6gkkSB+cycONzc8E52jp1zQB1yMXRWKlSQDtPUexp1Iu7aNxBbHOOmaWgAooooA5e61vW7HV7Nbq1sks72/8AscNuGY3BTB/fZB2443FccL3zxVvVNfOkayYbpEFidOmu1k53b4iNy+mNrAj6GqVloGuW/ie41e4v9NuvNkKqZLeTzILfPEUZ37V9zjk9e1W/FPhoeJYLGP7T9n+z3IeQ7c+ZERiSP23DjNHQDK07xjfTafpq39va22oyX0kF8mTsgjjjMrOMnP3NnXu1akPjPRpIZZpXubWOOD7Spubd4/NiyBvQEZYZKjA5+YccioLrwbBe+I9U1Ke4P2a/sWtWt1XBR3UI8gPqUVB07VkRfDaN9NubK6k0tA9qLeOa004RyEhlYPISxzyi5UYB59sAGteeM7aOOAwxyW8gvbeC5iv4mhaKKQn95g9sA4PTg56VYk8ZaXHDbyLFfy/aI3njSK0dnMKkAy7Rzs5GD1OeBWP/AMK9iurVoL6PSBHJdW8ssNpYeVHJHGSSrZYlt2e5wPTrRfeBb28060s31G0uFtFkht3u7ZmkijJGxlkVlYSKBtznDADIzQB3Vs6yhZEOUdQyn1BqxVLToGtbS3t3nknaKJYzNIctIQANx9z1q7QBxfw5/wCPbxL/ANjDe/8AoYrtK4v4c/8AHt4l/wCxhvf/AEMV2lADJoo54XhlUPHIpVlPQg8EVjf8Ib4c/wCgPa/981uUUAchq/w38PaubWGSxgis45fNmijTBmx91S2eFzycdcD3z1saLFGsaKFRQFUDoAKdRQAVxfxB/wCPnwf/ANjDb/8AoEldpXF/EH/j58H/APYw2/8A6BJQB2lZeu3F1aaPf3NjGkt3DbvJFHJna7KpIBxzzjFalQS438jI7igDkE8YNP4m0u0hhiOl3dvG0twSdySyo8kajtjbGc/7y0WPji2bS4Lq/hm82WNropaW7yiG2LsI5JMZxlRn88DAqonw/aLwlf6PFqW26nuRPb3fl8wBNoiXGedqLt/E0/VfAEN1fLc2Q07H2KOyZL+z+0BFjyFZPmGDhiCDkHAoA2JvF2kQXZhMk0kaNGstzFCzQRFwCgdxwMhlPtuGcZqLRPE8epXctjKv+mpc3MeyFSRHFHIyKzn+HOOPU5wOKyJfh3CNUmmg/stre4kikk+06esksZRVUiM5CgEIOCp25OKvaT4POja3JqlpdRpLc3NxJfKIzi4jkcugPP30JwG9CR3o6gJ4t8Sal4eJuUisVskCBPtDN5l3KxI8qPafkIAHzMCMn0BNdJe3kGnWE17dv5dvChd2Izx6D1PYDuaxde0LVNW+2W9vq0UWn39v9nuIJ7fzDGOQWiOQAxBx8wIyAaJvA/h+djI1k6zMUZpo7iRHYpgqSQw7gH6igCXwtrN3rmm3Fze2i2k0V5NB5IOSoQ4G4/3sdccZrcrE8N+HU8Ow30aXM0/2q7kuMyyu+0McgfMTz6nvW3QAUUUUAZurS6spt4tKitcyM3nXF0SUgUDOdoILEnjqAOSazLbxDfXvgKfXLe1hN7HDM6RgkxTGNmGVPB2sFyPYipfFWi6lrttbWtne28FqJC13DPG7LcrjhCVZSFzyRnnp0zWtp8NxFp8cF99laRV2sLaMxxbegAUk4GOOtAHPL4vaTxXZWUUUR0me3QvckncszxtKi+mNiE/Uim2Hjm1Ok291qMUyyyQfa5Ra27yLbQMzeW8hGduVGfwJxgVUX4fOng250VNTxdyXInivPL5jC4VFxntGuzr6mpNW8AQ3epSXVmNNCzW0Vs6X1l9o8oRgqrR/MADtOCDkcCgDZm8WaTDfm1Z52VJEiluY4WaCJ3xtVpBwCdy/TcM4zVLTPGlnNa3D3zCOW2N08/lIWSCGKV0DOexITgdSc4GKov8AD6FdYmuYRpjW1xcR3En2iwEk0ZUKCqNnaAdo6qduTjtiSz8Cvp0l1LY38cEl/wDahfEQBhMJHZ422tkF03Y5yCuR6YAOh0rWrfVxL5MN3C8W0sl1A0TYYZUjPUH2/GtofdH0rkvCvhiXw9JeO9xbhJwgW1s43jgjK5yyqzNhmzzjA4HFdaPuj6UAcZ4r/wCSg+Bf+vm7/wDSdq7SuL8V/wDJQfAv/Xzd/wDpO1dpQAVl33hzR9SuTc3unQTzEBS7rk4HStSigDBfwb4f2Ns0i0D4+UsmRn35pPCnhLTvCVhLDZJme4fzbqcjBmkPU46Ac8AdBW/RQAUUUUAcX8Kf+Se2f/Xzd/8ApRJXYy/6s1x3wp/5J7Z/9fN3/wClEldjL/qzQBx+q+Jb3T5tctUt4HurdbY6erZAmM52KG57SAg47VDbeNVkTTp7lYobdtOe8v2wxMTh1jCKB1JfeMck7cVo6p4aGpeJ9J1f7R5aWW7zodufPxzHz22sSfxrLl+H8E9t4hgku8pqkySwfusi3CuZQpBOGHmMzEcZBxQBqf8ACX6WIJXkW8hnjkSI2clswnZnyUCp1O4A4I44OcYNVLnxtYw3Ng+8Q2cjXCXf2iNklgeNAwXb13HcOOc5GOtZ0nw7S4tG80aPFcrcx3ESW+nbYDsDDbIpbc4Idu4xxj3c/wAObW8gtIr77EqRSzzMlla+Qqu6BUZOSQybQQxJOfSgDd1/XX0vwlcaxDAwlWJWiiuIyCGYhVDKOerDIHNJ4Z1WfVoboXF1azzwShHjhtZbdouM4dJCW56g9CKsNZaq/h+O1OqrHqiIub1IAVdlI5KE9GxyM9zgisyPwdb6hNeXXiMW+oXN08bFYkaKKMRqVUKNxJ+8xJJ7+1AFK38aTXniY2UEmnC2W+ay8mRnEz7chnD/AHAcg4jPJAzmu0rkx4PnS5NtFfQpozaiNSNv5B84Shg+0Puxt3gHpnHGa6yjoHUKKKKAEYlUZgpYgEhR39q5rTda1r+37TTNXt7FZLu0e68q1LF7TaVG2QkkNndgMMcqeDXSSbzE4iKiTadpYZAPbI9K5rwxoGsaLcTSahfafePcEvc3KQSLPM/8OWLkBR0CgAAdKAGap4mvrF9ctIraB763e2TT0bO2bz8Km/ns4fOOwqO38bRSCwuJlSK0bTReXZCszpIzrGkagdSX8wYwSdorQ1Hw0L/xZpetfaNiWakSwbc+cwz5Zz22l3P41kyfD2GWx1y2e7Vhf3aXFvui3LAqOZVQqT8y72ckcZDYoA1v+Ev0sW8jut5HOkywGze2YXBkYZUBOpyATkcYB54NU7jxvYxXli2/y7KRLn7T50bLNFJFsAj2ddxL4xgk5GOtZ8nw8Sez/eLo8d0l0lxHHBp223O1GTa67tzgh253cHGPdX+HFtdx2i3b2cZgNxIBZWogEcsgQI8eCSGTYOSSTQBvN4q09b9bIw33mjyhKRasVt2k+4shH3Scj6Z5xXQQ/wAVcNeeC9R1DUrW/udTtBdIIfMu4bUxzqUxuEbqw+V8cq4bG44ruYv4qAGX/wDyDrr/AK4v/I1zvw0/5Jn4c/68Y/5V0V//AMg66/64v/I1zvw0/wCSZ+HP+vGP+VAHVUUUUAFFFFABRRRQBxXibTdQ0LWv+Ew0C2e5l8sRarp8fW7hXo6f9NU5x6jiul0XW9P8Q6XDqWl3Kz20o4YdVPdWHUMO4PIrQrkdV8Fuupy634Y1A6Pq0vM4Cb7a6/66x+v+0MH60AddRXEr4y13R/3fiXwpejb1vNIH2uFvfaMOo+oNPHxW8FgfvdYNu3dJ7aWNh+BWgDs6K4s/E/QZ/l0m31bWJeyWOnysD/wJgFH51E6eN/FX7uQJ4W0tvvbJBNfSD0BHyRfX5iKAJvE/iS7vL9vCvhdw+tSr/pN0OY9OiPV3P9/H3V6k89OvQ6Bodn4c0S20qxUiCBcbmOWdjyzMe7Ekkn3pNC8PaZ4b08WWl2whjLb5GJ3PK56s7HlmPqa06ACiiigAooooAKKKKACuN8G/8jV42/7Ckf8A6Tx12VefaHrel6B438X2msahbafNcXcV1ALqVYhLEYUXcpYgHlSDjpigD0E8jFR+SPU1kf8ACZ+Fv+hl0f8A8Dov/iqP+Ez8Lf8AQy6P/wCB0X/xVAGv5I9TR5I9TWR/wmfhb/oZdH/8Dov/AIqj/hM/C3/Qy6P/AOB0X/xVAGv5I9TR5I9TWR/wmfhb/oZdH/8AA6L/AOKo/wCEz8Lf9DLo/wD4HRf/ABVAGv5I9TR5I9TWR/wmfhb/AKGXR/8AwOi/+Ko/4TPwt/0Muj/+B0X/AMVQBr+SPU0eSPU1kf8ACZ+Fv+hl0f8A8Dov/iqP+Ez8Lf8AQy6P/wCB0X/xVAGv5I9TR5I9TWR/wmfhb/oZdH/8Dov/AIqj/hM/C3/Qy6P/AOB0X/xVAGv5I9TR5I9TWR/wmfhb/oZdH/8AA6L/AOKo/wCEz8Lf9DLo/wD4HRf/ABVAGv5I9TR5I9TWR/wmfhb/AKGXR/8AwOi/+Ko/4TPwt/0Muj/+B0X/AMVQBr+SPU0eSPU1kf8ACZ+Fv+hl0f8A8Dov/iqP+Ez8Lf8AQy6P/wCB0X/xVAGwsYU5p9Yn/CZ+Fv8AoZdH/wDA6L/4qkPjTwqoJPiXR8Dk/wCnRf8AxVAGP8Of+PbxL/2MN7/6GK7SuK+GbefourX8Yb7Nf6zd3Vs5GPMiZ/lYexwcV2tABRRRQAUUUUAFcX8Qf+Pnwf8A9jDb/wDoEldpXE/EmRbW18O6lNlbOw1u3nupcZEUeHUsfYFhk+9AHbUxowxzk1jDxn4WIyPEuj/+B0X/AMVS/wDCZ+Fv+hl0f/wOi/8AiqANfyR6mjyR6msj/hM/C3/Qy6P/AOB0X/xVH/CZ+Fv+hl0f/wADov8A4qgDX8kepo8keprI/wCEz8Lf9DLo/wD4HRf/ABVH/CZ+Fv8AoZdH/wDA6L/4qgDX8kepo8keprI/4TPwt/0Muj/+B0X/AMVR/wAJn4W/6GXR/wDwOi/+KoA1/JHqaPJHqayP+Ez8Lf8AQy6P/wCB0X/xVH/CZ+Fv+hl0f/wOi/8AiqANfyR6mjyR6msj/hM/C3/Qy6P/AOB0X/xVH/CZ+Fv+hl0f/wADov8A4qgDX8kepo8keprI/wCEz8Lf9DLo/wD4HRf/ABVH/CZ+Fv8AoZdH/wDA6L/4qgDX8kepo8keprI/4TPwt/0Muj/+B0X/AMVR/wAJn4W/6GXR/wDwOi/+KoA1/JHqaPJHqayP+Ez8Lf8AQy6P/wCB0X/xVH/CZ+Fv+hl0f/wOi/8AiqANfyR6mpKxP+Ez8Lf9DLo//gdF/wDFUf8ACZ+Fv+hl0f8A8Dov/iqAMbxX/wAlB8C/9fN3/wCk7V2lefanq+m+IPiR4Ri0e+ttQaya6uLk2sokWFDCUBYrkDLEACvQaACiiigAooooAKKKKAOL+FP/ACT2z/6+bv8A9KJK7NgGGDXnPw78RaLovhY6PqurWVhqNleXUc9vdTrE6kzOwOGIyCGBBHHNdZ/wmfhb/oZdH/8AA6L/AOKoA1/JHqaPJHqayP8AhM/C3/Qy6P8A+B0X/wAVR/wmfhb/AKGXR/8AwOi/+KoA1/JHqaPJHqayP+Ez8Lf9DLo//gdF/wDFUf8ACZ+Fv+hl0f8A8Dov/iqANfyR6mjyR6msj/hM/C3/AEMuj/8AgdF/8VR/wmfhb/oZdH/8Dov/AIqgDX8kepo8keprI/4TPwt/0Muj/wDgdF/8VR/wmfhb/oZdH/8AA6L/AOKoA1/JHqaPJHqayP8AhM/C3/Qy6P8A+B0X/wAVR/wmfhb/AKGXR/8AwOi/+KoA1/JHqaPJHqayP+Ez8Lf9DLo//gdF/wDFUf8ACZ+Fv+hl0f8A8Dov/iqANfyR6mjyR6msj/hM/C3/AEMuj/8AgdF/8VR/wmfhb/oZdH/8Dov/AIqgDX8kepo8keprI/4TPwt/0Muj/wDgdF/8VR/wmfhb/oZdH/8AA6L/AOKoA1/JHqacqBOlY3/CZ+Fv+hl0f/wOi/8AiqP+Ez8Lf9DLo/8A4HRf/FUAad//AMg66/64v/I1zvw0/wCSZ+HP+vGP+VP1bxx4Ut9HvJW8R6UwWF/lju43Y8dAoOSfYU/4fWs9j8PdAtrmJop47GIOjDBU7ehHrQB0lFFFABRRRQAUUUUAFFFFABSEA9QDS0UAFFFFABRRRQAUUUUAFFFFABRRRQAVTvtJ07Uwg1DT7W72fd+0QrJt+mQcVcooAx/+ET8N/wDQv6V/4BR/4Uf8In4b/wChf0r/AMAo/wDCtiigDH/4RPw3/wBC/pX/AIBR/wCFH/CJ+G/+hf0r/wAAo/8ACtiigDH/AOET8N/9C/pX/gFH/hR/wifhv/oX9K/8Ao/8K2KKAMf/AIRPw3/0L+lf+AUf+FH/AAifhv8A6F/Sv/AKP/CtiigDH/4RPw3/ANC/pX/gFH/hR/wifhv/AKF/Sv8AwCj/AMK2KKAMf/hE/Df/AEL+lf8AgFH/AIUf8In4b/6F/Sv/AACj/wAK2KKAMf8A4RPw3/0L+lf+AUf+FH/CJ+G/+hf0r/wCj/wrYooAx/8AhE/Df/Qv6V/4BR/4Uf8ACJ+G/wDoX9K/8Ao/8K2KKAMf/hE/Df8A0L+lf+AUf+FH/CJ+G/8AoX9K/wDAKP8AwrYooAx/+ET8N/8AQv6V/wCAUf8AhQPCfhwHI8P6UCP+nOP/AArYooARVVECIoVVGAAMACloooAKKKKACiiigAproksbRyKrowwysMgj0Ip1FAGP/wAIn4b/AOhf0r/wDj/wo/4RPw3/ANC/pX/gFH/hWxRQBj/8In4b/wChf0r/AMAo/wDCj/hE/Df/AEL+lf8AgFH/AIVsUUAY/wDwifhv/oX9K/8AAKP/AAo/4RPw3/0L+lf+AUf+FbFFAGP/AMIn4b/6F/Sv/AKP/Cj/AIRPw3/0L+lf+AUf+FbFFAGP/wAIn4b/AOhf0r/wCj/wo/4RPw3/ANC/pX/gFH/hWxRQBj/8In4b/wChf0r/AMAo/wDCj/hE/Df/AEL+lf8AgFH/AIVsUUAY/wDwifhv/oX9K/8AAKP/AAo/4RPw3/0L+lf+AUf+FbFFAGP/AMIn4b/6F/Sv/AKP/Cj/AIRPw3/0L+lf+AUf+FbFFAGP/wAIn4b/AOhf0r/wCj/wo/4RPw3/ANC/pX/gFH/hWxRQBj/8In4b/wChf0r/AMAo/wDCj/hE/Df/AEL+lf8AgFH/AIVsUUAVLHS9P0xWWwsLW0VzlhbwrGG+uBVuiigAooooAKKKKACiiigDPvNC0jUZvOvtKsbqXGN89ujtj0yRVf8A4RPw3/0L+lf+AUf+FbFFAGP/AMIn4b/6F/Sv/AKP/Cj/AIRPw3/0L+lf+AUf+FbFFAGP/wAIn4b/AOhf0r/wCj/wo/4RPw3/ANC/pX/gFH/hWxRQBj/8In4b/wChf0r/AMAo/wDCj/hE/Df/AEL+lf8AgFH/AIVsUUAY/wDwifhv/oX9K/8AAKP/AAo/4RPw3/0L+lf+AUf+FbFFAGP/AMIn4b/6F/Sv/AKP/Cj/AIRPw3/0L+lf+AUf+FbFFAGP/wAIn4b/AOhf0r/wCj/wo/4RPw3/ANC/pX/gFH/hWxRQBj/8In4b/wChf0r/AMAo/wDCj/hE/Df/AEL+lf8AgFH/AIVsUUAY/wDwifhv/oX9K/8AAKP/AAo/4RPw3/0L+lf+AUf+FbFFAGP/AMIn4b/6F/Sv/AKP/Cj/AIRPw3/0L+lf+AUf+FbFFAGVD4Y0C3mSWHQ9MjlQ5V0tIwVPqCBWrRRQAUUUUAFFFFABRRRQAUUUUAFFFFABRRRQAUUUUAFFFFABRRRQAUUUUAFFFFABRRRQAUUUUAFFFFABRRRQAUUUUAFFFFABRRRQAUUUUAFFFFABRRRQAUUUUAFFFFABRRRQAUUUUAFFFFABRRRQAUUUUAFFFFABRRRQAUUUUAFFFFABRRRQAUUUUAFFFFABRRRQAUUUUAFFFFABRRRQAUUUUAFFFFABRRRQAUUUUAFFFFABRRRQAUUUUAFFFFABRRRQAUUUUAFFFFABRRRQAUUUUAFFFFABRRRQAUUUUAFFFFABRRRQAUUUUAFFFFABRRRQAUUUUAFFFFABRRRQAUUUUAFFFFABRRRQAUUUUAFFFFABRRRQAUUUUAFFFFABRRRQAUUUUAFFFFABRRRQAUVk2t5PJ4r1KzaTNvDa28kaYHDM0oY599q/lWtQAUUUUAFFFFABRRRQAUUUUAFFFFABRRRQAUUUUAFFFFABRRRQAUUUUAFFFFABRRRQAUUUUAFFFFABRRRQAUUUUAFFFFABRRRQAUUUUAFFFFABRRRQAUUUUAFFFFABRRRQAUUUUAFFFFABRRRQAUUUUAFFFFABRRRQAUUUUAFFFFABRRRQAUUUUAFFFFABRRRQAUUUUAFFFFABRRRQAUUUUAFFFFABRRRQAUUUUAFFFFABRRRQAUUUUAFFFFABRRRQAUUUUAcVpnifR7jx3fxw3qvNcW9tAkCqfMDq028MmMrtyM5Axkeortaz4ND0221u61mGzjTULqNIppwPmdV6D/PXA9BWhQAUUUUAFFFFABRRRQAUUUUAFFFFABRRRQAUUUUAFFFFABRRRQAUUUUAFFFFABRRRQAUUUUAFFFFABRRRQAUUUUAFFFFABRRRQAUUUUAFFFFABRRRQAUUUUAFFFFABRRRQAUUUUAFFFFABRRRQAUUUUAFFFFABRRRQAUUUUAFFFFABRRRQAUUUUAFFFFABRRRQAUUUUAFFFFABRRRQAUUUUAFFFFABRRRQAUUUUAFFFFABRRRQAUUUUAFFFFABRRRQAUUUUAFFFFABRRRQAUUUUAFFFFABRRRQAUUUUAFFFFABRRRQAUUUUAFFFFABRRRQAUUUUAFFFFABRRRQAUUUUAFFFFABRRRQAUUUUAFFFFABRRRQAUUUUAFFFFABRRRQAUUUUAFFFFABRRRQAUUUUAFFFFABRRRQAUUUUAFFFFABRRRQAUUUUAFFFFABRRRQAUUUUAFFFFABRRRQAUUUUAFFFFABRRRQAUUVUvtV07S1RtQv7W0VzhTcTLGG+mSKALdFY3/CXeGv8AoYdJ/wDA2P8A+Ko/4S7w1/0MOk/+Bsf/AMVQBs0Vjf8ACXeGv+hh0n/wNj/+Ko/4S7w1/wBDDpP/AIGx/wDxVAGzRWN/wl3hr/oYdJ/8DY//AIqj/hLvDX/Qw6T/AOBsf/xVAGzRWN/wl3hr/oYdJ/8AA2P/AOKo/wCEu8Nf9DDpP/gbH/8AFUAbNFY3/CXeGv8AoYdJ/wDA2P8A+Ko/4S7w1/0MOk/+Bsf/AMVQBs0Vjf8ACXeGv+hh0n/wNj/+Ko/4S7w1/wBDDpP/AIGx/wDxVAGzRWN/wl3hr/oYdJ/8DY//AIqj/hLvDX/Qw6T/AOBsf/xVAGzRWN/wl3hr/oYdJ/8AA2P/AOKo/wCEu8Nf9DDpP/gbH/8AFUAbNFY3/CXeGv8AoYdJ/wDA2P8A+Ko/4S7w1/0MOk/+Bsf/AMVQBs0Vjf8ACXeGv+hh0n/wNj/+Ko/4S7w1/wBDDpP/AIGx/wDxVAGzRTY5EljWSN1dGGVZTkEeoNOoAKKKKACiiigAoopGZUQu7BVUZJJwAKAForHPi3w2Dg+IdJBH/T7H/jSf8Jd4a/6GHSf/AANj/wDiqANmisb/AIS7w1/0MOk/+Bsf/wAVR/wl3hr/AKGHSf8AwNj/APiqANmisb/hLvDX/Qw6T/4Gx/8AxVH/AAl3hr/oYdJ/8DY//iqANmisb/hLvDX/AEMOk/8AgbH/APFUf8Jd4a/6GHSf/A2P/wCKoA2aKxv+Eu8Nf9DDpP8A4Gx//FUf8Jd4a/6GHSf/AANj/wDiqANmisb/AIS7w1/0MOk/+Bsf/wAVR/wl3hr/AKGHSf8AwNj/APiqANmisb/hLvDX/Qw6T/4Gx/8AxVH/AAl3hr/oYdJ/8DY//iqANmisb/hLvDX/AEMOk/8AgbH/APFUf8Jd4a/6GHSf/A2P/wCKoA2aKxv+Eu8Nf9DDpP8A4Gx//FUf8Jd4a/6GHSf/AANj/wDiqANmisb/AIS7w1/0MOk/+Bsf/wAVR/wl3hr/AKGHSf8AwNj/APiqANmiqdjq+m6pv/s/ULS72fe+zzLJt+uCcVcoAKKKKACiiigAooooAKKKKACiiigAooooAKKKKACiiigAooooAKKKKACiiigAooooAKKKKACiiigAooooAKKKKACiiigAooooAKKKKACiiigAooooAKKKKACiiigAooooAK8+0zSNO1/4k+LpdYsbe/ayNpb2wuoxIsKGIOQobIGWJJNeg1xfhX/kofjr/r4s/wD0nWgDZ/4Q7wv/ANC3o/8A4Axf/E0f8Id4X/6FvR//AABi/wDia26KAMT/AIQ7wv8A9C3o/wD4Axf/ABNH/CHeF/8AoW9H/wDAGL/4mtaO5gmlmiimjeSFgsqKwJQkAgEdjgg/jVPUte0jRmjXU9Us7JpASguJ1j3AdcZNAFX/AIQ7wv8A9C3o/wD4Axf/ABNH/CHeF/8AoW9H/wDAGL/4mtDT9TsNWtzcade293CGKmSCQOuR2yO/NW6AMT/hDvC//Qt6P/4Axf8AxNH/AAh3hf8A6FvR/wDwBi/+JrbqKK6t5hKYp43ETlJCrA7GHUH0IoAyf+EO8L/9C3o//gDF/wDE0f8ACHeF/wDoW9H/APAGL/4mryavpsmlHVU1C1bTwpc3QlUxBR1O7OMDBq3HIksayRsHRgGVlOQQehFAGN/wh3hf/oW9H/8AAGL/AOJo/wCEO8L/APQt6P8A+AMX/wATWtNcwW3l+fNHH5jiNN7AbmPRR6k+lPkkSGJ5ZXVI0UszMcBQOpJoAxv+EO8L/wDQt6P/AOAMX/xNH/CHeF/+hb0f/wAAYv8A4mtG51Ows9P+33V7bw2eFbz5JAqYPQ7jxzkfnTNO1nTNYR30zUbW8WM4c28yybT74PFAFH/hDvC//Qt6P/4Axf8AxNH/AAh3hf8A6FvR/wDwBi/+JrbqJ7mCO4jt3mRZpQzRxlgGYLjJA74yPzoAyf8AhDvC/wD0Lej/APgDF/8AE0f8Id4X/wChb0f/AMAYv/ia26KAMT/hDvC//Qt6P/4Axf8AxNH/AAhvhc/8y3o//gDF/wDE1t0UAcT8No1tLfxHpsAKWdjrdxBaxZyIo9qNtX0ALHj3rtq4v4f/APH54x/7GGf/ANFx12lABRRRQAUUUUAFcV8TR5+h6VYOW+zX+s2drcoDjzImk+ZTjscc12tcX8R/+PTw5/2MNj/6MoA2R4N8LqAB4b0fA4H+gxf/ABNH/CHeF/8AoW9H/wDAGL/4mtuigDE/4Q7wv/0Lej/+AMX/AMTR/wAId4X/AOhb0f8A8AYv/ia26KAMT/hDvC//AELej/8AgDF/8TR/wh3hf/oW9H/8AYv/AImtuq9tf2d5JcR211DM9vJ5UyxyBjG/Xa2Oh9jQBmf8Id4X/wChb0f/AMAYv/iaP+EO8L/9C3o//gDF/wDE1qWd7a6harc2VzFcW75CywuHU4ODgjjqCKfPPDa28lxcSpFDGpd5HYBVUdSSegoAyP8AhDvC/wD0Lej/APgDF/8AE0f8Id4X/wChb0f/AMAYv/ia2gQwBByDyCKqvqlhFYSX73tutnGSHnMgCLg7TlugwQR9aAM//hDvC/8A0Lej/wDgDF/8TR/wh3hf/oW9H/8AAGL/AOJqaw8TaDqt0LXT9ZsLq4IJEUFwjtgdeAa1aAMT/hDvC/8A0Lej/wDgDF/8TR/wh3hf/oW9H/8AAGL/AOJrWhuYLjzPImjk8tzG+xgdrDqp9D7UfaYDdG186P7QE8wxbhu25xux6ZGM0AZP/CHeF/8AoW9H/wDAGL/4mj/hDvC//Qt6P/4Axf8AxNbdFAGJ/wAId4X/AOhb0f8A8AYv/iaP+EO8L/8AQt6P/wCAMX/xNbdFAGJ/wh3hf/oW9H/8AYv/AImj/hDvC/8A0Lej/wDgDF/8TW3RQB59r2i6XoPjXwheaRp9tp8897JazG1iWISxGF22sFAB5UEZ6Yr0GuN8af8AIz+Cf+wq/wD6TyV2VABRRRQAUUUUAFFFFABRRRQAUUUUAFFFFABRRRQAUUUUAFFFFABRRRQAUUUUAFFFFABRRRQAUUUUAFFFFABRRRQAUUUUAFFFFABRRRQAUUUUAFFFFABRRRQAUUUUAFFFFABXF+Ff+Sh+Ov8Ar4s//Sda7SuL8K/8lD8df9fFn/6TrQB2lFFJuHqKAPNNQvJbPX9cBvJbGwn1q3jvruI7TFF9jUj5v4AXCKW7Z6jrRqF1LffDDxWWuZL60gM0Vjdy4ZpoQqnO7HzAMWUN329+telfIc/d56+9Hybdvy46YoAz9ZuTpnhzULuFZFaC2klXyIw7ZCk5C9CfavK4/EOq+XqNva63I6PZ2kqyxX32spI1yiMQ+xVB2tygyBkV7LuX1H500CMDAC4HajqHQ83vr290zUb7SpdZvo9Jj1C2We9klzJBFJCzEeZj5VMioN3bceR21PAzQvoGvvb3j3kJ1K52XDnJkGFwc45+vfrXanYc52nPX3oBQDA2ijuB4dp8Tp4CTwqEb7Ld6Ymr8DgQiDdIv/f9V49JDW3c6xdW9ldFtZurTUrS1tf7HsIyAt1mFD9zH73dIWQ/3QO3WvVvkxj5emPwo+TIPy5HT2p3A8qvL83etWA1DV7hdXXxEqHSy42JCrHyyEx027W39ycZ7VTsNZ1m+tJjearCbmezvP7QsGunkdMRvgeT5QEO1sDJbBHdiQa9h+QnPy59aPkyT8uT1PrS6WDrc4XxBJFB8MNHlndUhjfTWdnOFVRLEST7VneIdYW51i41bwa0N3c2ej3Iubi1AkQksnlKSAQzDEjBeSMHjnn0s7GXadpHoaF2IMLtUeg4oeruC0PJ01fUhpeofZ/E1s9oBbEyrey3Hlsz4YNP5Q8oMvB67DzgA0q+I9YOmwvps13NcRW2pBN8q3IkZPKKlHCjzVXcdpIySCDmvVwIwCAFAPUetRXNtb3dpLazAGKRDGwVip2kYOCOR+FAHldzq7rd3ttofiq+vbY29gROZhKYnkugjkNjGSp5B6dMDpXbeGGuINW1/TJby5uoLO4i8h7l97qHiViu7qRknGfWr+laBY6RLNPHJcXFxMqo811O0r7VyVUE9ACSfqcmtXKgk5GT1piFopAQehFLSGcX8P8A/j88Y/8AYwz/APouOu0ri/h//wAfnjH/ALGGf/0XHXaUAFFFFABRSFlDBSQCegz1paACuL+I/wDx6eHP+xhsf/RldpXF/Ef/AI9PDn/Yw2P/AKMoA7SiikJA6mgBaKTcvqPzo3L6j86AFryCCW40nWdcazDrJr+o3OnKyg/JcBxsc+n7t5Dn/pmK9e3L6j86T5P9nrmjqB5No8tvpljp2lXWrT6LocQv/KmhlEO+VLp1VC5HZOQv8XvjFUtZ1m9v/CmpDxHq91p1wdFR7OBQIhdllcMxTHzscKCv8IOcDOa9mIjIwQpGc4oOxsZ2nHrR0Drc8suNZ1r/AISe4i/tSCzmhvYIbS1lunXzYCE6QLE3mBsv827g/wB3bXYeB1B8MFSuR9tvOCP+nmSuj+TcG+XI6H0pQVAwCBQB5rJJPa+FPFEtlM9rcHxAY1niADoGniU4/Ams7xZrd7o1/f29nrF2kumC3EK3N7td84ZiIwjGcEEgsxAGCOMZr1r5MEfLg80EITk7ScYz7UAecxT6hqnidNNfVL63tpNR1BX+zybGKIIti5xkAFj05rLGu61cabBnVLlJmsrVDMmA243/AJRfpjcUGDxivWvkBz8uaMR+i0dg7nm13fXmnajd6Tca1fRaRFqkMc99JN+8hie33hTKRlVMm0bj03YyM10PgK+e/wBJ1BzqM2oRR6lPFBcTHLNGpAXnAyPfv171t6ppdtq1usU0s0RRxIklvMY3VgCOo68EjByKdpem2mj2QtbQME3M7NI5d3djlmZjySSetCAu0Um5fUfnRuX1H50ALRSbh6j86WgDjfGn/Iz+Cf8AsKv/AOk8ldlXG+NP+Rn8E/8AYVf/ANJ5K7KgAooooAKKKKACiiigAooooAKKKKACiiigAooooAKKKKACiiigAooooAKKKKACiiigAooooAKKKKACiiigAooooAKKKKACiiigAooooAKKKKACiiigAooooAKKKKACiiigAri/Cv8AyUPx1/18Wf8A6TrXaVxfhX/kofjr/r4s/wD0nWgDsz0NZcmpW8Wr2+mOWFxcQyTR/L8pVCobn1+YHHpWoehrjPHNhqVxp1rd6NC0uoW8rRoF6hJUaNj9F3K3/AaALln4w0i/0qPUrd5mgkvFskHl4YyswUcehyGz6c1uh1ZmVWVmU4YA5I+tcKvhi8tPF8FtZxFNHjgS7Sb+FbmOE26jHrtKt/wGuc07wlrq6bLBbw39pq66bPBLOYYYY5ZWXHMqndKS2SGPTqcdKAPUb/VLTTbL7XO5aLzUhzH83zO4QD82FW2kjRXZnULHkuc/dxyc+leVL4Y1B9Mvl0+01KyaQWce17OCBQyTqxcRp95kUE7jwR612vha2uNJ0Gezu7Jxc2ksgklUZN8fvecCTyzgjOejZHTFAFjSvFOn6vdR28Ed3E08JntmuIDGtxGCMuhPUfMvXBwQcUureKNO0W4aG5W5do4ftE7QQGRbeLJG+QjoOD6ngnHFc/orarrN/Nf3tnqGmas1u0VmZrMG3sYyQSo+b53bAyeOmBgDlfE9nql3o82j31heao8tvmG+sMQh58thZU3YVBlTzuU85HYgHbqwZQykFSMgjuKWobNZ0sbdbpka5WJRKyDCl8DcR7ZzU1ABRRRQBhv4s0yPUzZFbratwLRroQHyFnOMRl/XJA9MnGc1oSanbRavFpjlluJYHuEJHylEKhufUbhx6GuVubm91XxUsF/o2qR6VZXStbLFbApcSg8TSPnhFPIX23HsKteOtO1K7srS50eFpL6N5Lf5TysUyGNm+inY3/AaOgdS9Y+L9J1HSrbUbZ5mgubsWUQMeHMhOBx6Y+bPpzW6rq7MqsrFThgDnB964R/DN/B4ta3sYzFpUdubu3n/AIUuhD9nUfULhq56w8J62NJuILSDULPUxpclvK7QwwRyynbkeYp3SkkMQ56Z5POKAPUb7VLTT7aO4mctHJPHbgx/N87uEUfmRn0qy0saglpEADbTlh19PrXli+F9QlsbldOt9SsPNnsV+azggCFJgzSLGnBZF6seDx1xT77w9fHSNOtpdFnaex+0QSOlsl1FcuxX960bkE+YOd4YMp3A8GgD1aL79T1l6ClxHo9gl5AlvcrbIssKOXWNgoyoJJJx65P1rUoA4v4f/wDH54x/7GGf/wBFx12lcX8P/wDj88Y/9jDP/wCi467SgBsgZo2CNscghWxnB9cVif2Z4g/6GNP/AAAT/wCKrdooA4TxR4d8VajFYQ2Ouj7Ut0siXYtFT7KBnc33stkZXb0O7njmu4hWRII0lk82RVAeTbt3HHJx2zT6KACuL+I//Hp4c/7GGx/9GV2lcX8R/wDj08Of9jDY/wDoygDtKo6ndx2FncXkwdoreJpXCLuYqoJOB3OBV6q86q+UcZRlwwPcHrQBjN4l0xdV0vTvNcz6nCZ7bCZUqBuGT2JGceuDVqw1W01K3eeByIlnktw0g27nRirbfUZB/KvP7Tw/rlroN9dmykfU9Kmt4tMiJGZobZjgj/fV3FQ6n4Sv4P7Nintbq9tE0oQbbe1iuClyWLSHEh+UsWGHHTHJFAHqRdVdULKGb7qk8n6VUstTtr/7R5LEeRcvavvGMyL1A9a8zvvCurvfzLdxancySQ2qWlzFDBLJFsRQQZm5iYOGYkcHORnpWzpGiapp/jSfVLu2lurO41C5SJGUf6HuwROo7h8FSeo4xxmjqHQ67WtcsPD9it5qMpjieVIUCjLO7HAAHf1+gJqzqF9baXYz3t5J5dvAu52wT+QHJJPAA61xvjnw/rup/aLuxe0uEWKKO3tnicvGfMVnYEMBk4GTj7q4HU1a8VaF4g1XSb1F1RJkbypY7KC3ETbkdHIWUtnJ2tjI7jnigDf0rWbfVjOkcF1bzW5USw3UJjddwypweoI7j0NaNcx4UtbiC91OSO0vrLSpPK+zW19IWkEgB8xgCzFVOV4zyQT356egAooooAoarq9tpEULTJPLJPJ5UEFvHvklbBOAPYAkk4AAqJNfsZPD0utxmV7OGOSSQCMiRdmQ6lTzuBUgj1FN16aeG1jEenXF7byMY7kWrlZ4kKn5kwQTzgHBBAORVPwhpk1n4WFhe27xQtJMIoJiGkSBnJVZCOrbTyck88knNAF1vEWmrrWn6T5rG6v4DPBhcqVAzyexIBIHfafSrGn6raana/abdyIjNJApkG3eyMVOPUZBx6159a6Dr9r4cur82Uj6xplxbx2EWRumhtwUBH++HkP41Bqvg++t3tbeS1u720TSY7aL7NbRTlJ8sZD+8P7ssWB3j05PAoA9ULqHVCyhm6KTyfoKqWGp22pRyvbscR3Elsd4wS6MVYD15Brza+8Lau+sXH2qPUriaU232S7hhgkaMIiA5mbmIhgzHHBzkZzirln4e1e11fUrq5sp7yC+l1CK3jDCNrMuzMro3YSjgvjIO3tmgD0dHSQEo6sAcEqc81bX7o+lefeAdMvNMubxJNNa2tTBEqyy2qW0rOu4FWVGKvgEfvAFznv29BX7o+lAHHeNP+Rn8E/9hV//AEnkrsq43xp/yM/gn/sKv/6TyV2VABRRRQAUUUUAFFFFABRRRQAUUUUAFFFFABRRRQAUUUUAFFFFABRRRQAUUUUAFFFFABRRRQAUUUUAFFFFABRRRQAUUUUAFFFFABRRRQAUUUUAFFFFABRRRQAUUUUAFFFFABXF+Ff+Sh+Ov+viz/8ASda7SuL8Lf8AJQ/HX/Xez/8AScUAdoeRUHlN7VPRQBB5TelHlN6VPRQBB5TelHlN6VPRQBB5TelHlN6VPRQBB5TelHlN6VPRQBB5TelHlN6VPRQBB5TelHlN6VPRQBB5TelHlN6VPRQBB5TelHlN6VPRQBFGhVsmpaKKAOL+H/8Ax+eMf+xhn/8ARcddpXF/D/8A4/PGP/Ywz/8AouOu0oAKKKKACiiigAri/iP/AMenhz/sYbH/ANGV2lcX8R/+PPw5/wBjBY/+jKAO0qORCzZFSUUAQeU3pR5TelT0UAQeU3pR5TelT0UAQeU3pR5TelT0UAQeU3pR5TelT0UAQeU3pR5TelT0UAQeU3pR5TelT0UAQeU3pR5TelT0UAQeU3pR5TelT0UAQeU1TAYAFLRQBxvjT/kZ/BP/AGFX/wDSeSuyrjPGf/Iz+CR/1FX/APSeSuzoAKKKKACiiigAooooAKKKKACiiigAooooAKKKKACiiigAooooAKKKKACiiigAooooAKKKKACiiigAooooAKKKKACiiigAooooAKKKKACiiigAooooAKKKKACiiigAooooAK5jWfBFpqurtq1tqeqaTfyRiKabTpxH5yr90OCCDjPBxmunooA4v/hALr/oePFf/gXH/wDG6P8AhALr/oePFf8A4Fx//G67SigDi/8AhALr/oePFf8A4Fx//G6P+EAuv+h48V/+Bcf/AMbrtKKAOL/4QC6/6HjxX/4Fx/8Axuj/AIQC6/6HjxX/AOBcf/xuu0ooA4v/AIQC6/6HjxX/AOBcf/xuj/hALr/oePFf/gXH/wDG67SigDi/+EAuv+h48V/+Bcf/AMbo/wCEAuv+h48V/wDgXH/8brtKKAOL/wCEAuv+h48V/wDgXH/8bo/4QC6/6HjxX/4Fx/8Axuu0ooA4v/hALr/oePFf/gXH/wDG6P8AhALr/oePFf8A4Fx//G67SigDi/8AhALr/oePFf8A4Fx//G6P+EAuv+h48V/+Bcf/AMbrtKKAOL/4QC6/6HjxX/4Fx/8Axuj/AIQC6/6HjxX/AOBcf/xuu0ooA4v/AIQC6/6HjxX/AOBcf/xuj/hX9z/0PHiv/wAC4/8A43XaUUAZmgaBY+G9LXT9PWQRh2kd5XLySuxyzux5LE9606KKACiiigAooooAKz9b0Sx8Q6TNpuoRl4JMHKsVZGByrKRyCCAQa0KKAOL/AOFf3I4HjjxXjt/pkZ/9p0f8IBdf9Dx4r/8AAuP/AON12lFAHF/8IBdf9Dx4r/8AAuP/AON0f8IBdf8AQ8eK/wDwLj/+N12lFAHF/wDCAXX/AEPHiv8A8C4//jdH/CAXX/Q8eK//AALj/wDjddpRQBxf/CAXX/Q8eK//AALj/wDjdH/CAXX/AEPHiv8A8C4//jddpRQBxf8AwgF1/wBDx4r/APAuP/43R/wgF1/0PHiv/wAC4/8A43XaUUAcX/wgF1/0PHiv/wAC4/8A43R/wgF1/wBDx4r/APAuP/43XaUUAcX/AMIBdf8AQ8eK/wDwLj/+N0f8IBdf9Dx4r/8AAuP/AON12lFAHF/8IBdf9Dx4r/8AAuP/AON0f8IBdf8AQ8eK/wDwLj/+N12lFAHF/wDCAXX/AEPHiv8A8C4//jdH/CAXX/Q8eK//AALj/wDjddpRQBxf/CAXX/Q8eK//AALj/wDjdH/CAXX/AEPHiv8A8C4//jddpRQBy2k+BrTTtXh1W71XVdXvLdWW3fUbgSCDcMMUUAAEjjPXFdTRRQAUUUUAFFFFABRRRQAUUUUAFFFFABRRRQAUUUUAFFFFABRRRQAUUUUAFFFFABRRRQAUUUUAFFFFABRRRQAUUUUAFFFFABRRRQAUUUUAFFFFABRRRQAUUUUAFFFFABRRRQAUUUUAFFFFABRRRQAUUUUAFFFFABRRRQAUUUUAFFFFABRRRQAUUUUAFFFFABRRRQAUUUUAFFFFABRRRQAUUUUAFFFFABRRRQAUUUUAFFFFABRRRQAUUUUAFFFFABRRRQAUUUUAFFFFABRRRQAUUUUAFFFFABRRRQAUUUUAFFFFABRRRQAUUUUAFFFFABRRRQAUUUUAFFFFABRRRQAUUUUAFFFFABRRRQAUUUUAFFFFABRRRQAUUUUAFFFFABRRRQAUUUUAFFFFABRRRQAUUUUAFFFFABRRRQAUUUUAFFFFABRRRQAUUUUAFFFFABRVGHUhNrd3pvlEG2gimMmfvby4xj22frV6gAooooAKKKKACiiigAooooAKKKKACiiigAooooAKKKKACiiigAooooAKKKKACiiigAooooAKKKKACiiigAooooAKKKKACiiigAooooAKKKKACiiigAooooAKKKKACiiigAooooAKKKKACiiigAooooAKKKKACiiigAooooAKKKKACiiigAooooAKKKKACiiigAooooAKKKKACiiigAooooAKKKKACiiigAooooAKKKKACiiigAooooAKKKKACiiigAooooAwbL/keNY/68bT/wBCnrerkNO8BW9h4tuNXN/cy2ZVDbae8hMcDgscjnkDcSoPC7jjtjr6ACiiigAooooAKKKKACiiigAooooAKKKKACiiigAooooAKKKKACiiigAooooAKKKKACiiigAooooAKKKKACiiigAooooAKKKKACiiigAooooAKKKKACiiigAooooAKKKKACiiigAooooAKKKKACiiigAooooAKKKKACiiigAooooAKKKKACiiigAooooAKKKKACiiigAooooAKKKKACiiigAooooAKKKKACiiigAooooAKKKKACiiigAooooAKKKKACiiigAooooAKKKKACiiigAooooAKKKKACiiigAooooAKKKKACiiigAooooAKKKKACiiigAooooAKKKKACiiigAooooAKKKKACiiigAooooAKKKKACiiigAooooAKKKKACiiigAooooAKKKKACiiigAooooAKKKKACiiigAooooAKKKKACiiigAooooAKKKKACiiigAooooAKKKKACiiigAooooAKKKKACiiigAooooAKKKKACiiigAooooAKKKKACiiigAooooAKKKKACiiigAooooAKKKKACiiigAooooAKKKKACiiigAooooAKKKKACiiigAooooAKKKKACiiigAooooAKKKKACiiigAooooAKKKKACiiigAooooAKKKKACiiigAooooAKKKKACiiigAooooAKKKKACuV8dapqFhY6XZaZcC1utV1GKxF1sDmBWDMzKDwThSBn1rqq4vx/wD8fvg7/sYIP/RctAB/wgV//wBD34o/7/w//G6P+ECv/wDoe/FH/f8Ah/8AjddpRQBxf/CBX/8A0Pfij/v/AA//ABuj/hAr/wD6HvxR/wB/4f8A43XaUUAcX/wgV/8A9D34o/7/AMP/AMbo/wCECv8A/oe/FH/f+H/43XaUUAcX/wAIFf8A/Q9+KP8Av/D/APG6P+ECv/8Aoe/FH/f+H/43XaUUAcX/AMIFf/8AQ9+KP+/8P/xuj/hAr/8A6HvxR/3/AIf/AI3XaUUAcX/wgV//AND34o/7/wAP/wAbo/4QK/8A+h78Uf8Af+H/AON12lFAHF/8IFf/APQ9+KP+/wDD/wDG6P8AhAr/AP6HvxR/3/h/+N12lFAHF/8ACBX/AP0Pfij/AL/w/wDxuj/hAr//AKHvxR/3/h/+N12lFAHF/wDCBX//AEPfij/v/D/8bo/4QK//AOh78Uf9/wCH/wCN12lFAHF/8IFf/wDQ9+KP+/8AD/8AG6P+ECv/APoe/FH/AH/h/wDjddpRQBwVuureE/GmiaZJr19q9hrAnjZb8I0kMkabwysqjggEEGu9ri/FP/JRPAv/AF3vP/Sc12lABRRRQAUUUUAFFFFAHm3h+w1rxxpja/c+K9W05Li4mWCz08xxpFGkjIASyEs3y5J961f+ECv/APoe/FH/AH/h/wDjdHwo/wCSdWH/AF3uv/SiSu0oA4v/AIQK/wD+h78Uf9/4f/jdH/CBX/8A0Pfij/v/AA//ABuu0ooA4v8A4QK//wCh78Uf9/4f/jdH/CBX/wD0Pfij/v8Aw/8Axuu0ooA4v/hAr/8A6HvxR/3/AIf/AI3R/wAIFf8A/Q9+KP8Av/D/APG67SigDi/+ECv/APoe/FH/AH/h/wDjdH/CBX//AEPfij/v/D/8brtKKAOL/wCECv8A/oe/FH/f+H/43R/wgV//AND34o/7/wAP/wAbrtKKAOL/AOECv/8Aoe/FH/f+H/43R/wgV/8A9D34o/7/AMP/AMbrtKKAOL/4QK//AOh78Uf9/wCH/wCN0f8ACBX/AP0Pfij/AL/w/wDxuu0ooA4v/hAr/wD6HvxR/wB/4f8A43R/wgV//wBD34o/7/w//G67SigDi/8AhAr/AP6HvxR/3/h/+N0f8IFf/wDQ9+KP+/8AD/8AG67SigDhL3wZrFlY3F1ZeO/EBuYY2kiFy0MkZYDIDL5YyPxrpPCurya/4T0nVpo1jlvLWOZ1XoGKgnHtmrupf8gu7/64P/6CawPht/yTXw5/14Rf+g0AdTRRRQAUUUUAFFFFAHG+KrnU7/xVpHhnT9Sl0yK6t57q5urdVMpWMqAiFgQuS+Scdqb/AMIFf/8AQ9+KP+/8P/xunaj/AMlf0L/sE3f/AKMirsqAOL/4QK//AOh78Uf9/wCH/wCN0f8ACBX/AP0Pfij/AL/w/wDxuu0ooA4v/hAr/wD6HvxR/wB/4f8A43R/wgV//wBD34o/7/w//G67SigDi/8AhAr/AP6HvxR/3/h/+N0f8IFf/wDQ9+KP+/8AD/8AG67SigDi/wDhAr//AKHvxR/3/h/+N0f8IFf/APQ9+KP+/wDD/wDG67SigDi/+ECv/wDoe/FH/f8Ah/8AjdH/AAgV/wD9D34o/wC/8P8A8brtKKAOL/4QK/8A+h78Uf8Af+H/AON0f8IFf/8AQ9+KP+/8P/xuu0ooA4v/AIQK/wD+h78Uf9/4f/jdH/CBX/8A0Pfij/v/AA//ABuu0ooA4v8A4QK//wCh78Uf9/4f/jdH/CBX/wD0Pfij/v8Aw/8Axuu0ooA4v/hAr/8A6HvxR/3/AIf/AI3R/wAIFf8A/Q9+KP8Av/D/APG67SigDi/+ECv/APoe/FH/AH/h/wDjdJ4buNU0nxrf+F77VZ9Vt1sY7+2uLlVEyBnZGRioAblcg4712tcXD/yWu7/7F+L/ANKHoA7SiiigAooooAKKKKACiis7XdbsfDujz6nqEhSCEdFGWdjwFUd2J4AoAs319aaZZy3l9cxW1tENzyyuFVR7k1yA8batrpx4R8Oy3luempag5trY+6ggu4+gFM0vwxeeJ7uLXvGcQLKd9joxOYbQdmkHR5fUngdAK7oAAYAwBQBxf9k/EK7+a48UaTYE/wDLOz0wygf8Ckfn8qDpHxBtfmg8V6XfEfwXml+WD+Mb5H5V2lFAHEN4y1zQf+Rs8NyRWq/e1HS3NzAo9WTAdB74Ndbp2pWWr2Md7p11DdWsoyksThlP4irVcPrHhS80O8l8QeC1SC8J33el5229+O/HRJPRh+PWgDuKKyvDuv2XibRotSsiwViUkikGHhkHDI47MDwRWrQAUUUUAFFFFABXF+P/APj98Hf9jBB/6LlrtK4vx/8A8fvg7/sYIP8A0XLQB2lFFFABRRRQAVW1C5ay026ukj8xoYXkCf3iATj9Ks0UMDjNGsLqfRtI1+fxLdpdXCw3E5kkBtpBJgmIRnCqDu2qR82ccnvT0HxHrd1ZwafYQw3l8qXFzNLezso2C5kREBAJJOwjJ4AA61vweC9Gt7mGRI7gwwS+dDaNcyNbxPnIZYydoweRxgHpikk8F6M8MMaLdQGISKJLe6kjdkkcu6MykEqWJOD07YoYGTD4/a60HV9Vt7FQllYwXcSO/LeYhYq2OmCMZFQ6v4i1m8lR7GCKDTYdbgsXmE5EzYmVXO3GNhOVxnOOfatm98C6DfKY2t5ooWt0tnht7h445I0+4GVSAdueM1LceDtHutSF86XCv9pS7MSXLrEZlIxIUB2luBk45o6h0KnjH+0pJ9OhsHuZIMySXVpY3SwXUqgABkLEZVSeQCOo57HDt/Gcml6fbWEEt3e3s11NEBqVvIJbRUVWKSiNWZyA64YDBDA5457PV9BsdaMD3ImSe3JMNxbzNFLHkYOGUg4I6joapnwbo4tIoEW5jkjmadbpLmQXHmMNrMZM7iSODk4wAOwoA5abxnrf2yPUhaLBaw6LeXUtlPvQtJFIq7hlQcHjaSB8rHjNbet+LrvTLiaC2sIriRbS1nRWlKbmmn8raTjgDrmtA+ENHK26mGVlhgltiGndvNjl5dZMn58nnnnNZeo/D6wm0y4t7SS4+0XAt4pJrq6kkJiilEgUEkkcAgY9aAZraHq95eX2o6bqVvBDe2JjZjbyF43SQEqRkAg/KwIPp71t1n6Votno6z/ZvOeW4cPNNPK0skhAwMsxJwAAAO1aFABRRRQAUUUUAcX4p/5KJ4F/673n/pOa7SuL8U/8lE8C/wDXe8/9JzXaUAFFFFABRRRQAUUUUAcX8KP+SdWH/Xe6/wDSiSu0ri/hR/yTqw/673X/AKUSV2lABRRRQBgeN7mez8D61c2szwzxWcjRyRthkOOCD2NYt95nhDUtHuo9U1G5s7t5Irq3u7hp/lWF5d6FuQR5eODgg/Suu1PTrbV9LudOvFZra5jMUgVipKkYOCOlZ1j4T02yvBdu13eXCxtHG99dPP5atwwUMSBnGDgc0Ac1Z/EHVLuyluU0QuGsmvYQiTgKFwxjdnjVSxUnBUkEgj0Jn1TxRc6pdw2GmTfZ7G6v4LL+0IyC/wA0LTPsyMA7Qig88se4roNL8LaZo84ltRckJGYYY5rmSRIYzjKorEhRwPwAHSkt/COiW3h8aHHZgWAcyBN7blctu3Bs7gQehByMDFAHPavf3fgnUcW93d6hazadd3JtrycyMkkCqwYOfmCtnaQcjOMYqa78X61pq3EF5o8L3v2eO6hW1keVRG0gRt4CbspkE7QcjpV+98GWkmjavb20k0l/f2UloLu9neZlVlIC5YkhcnJA6+9SQeCdIjs5IZVuZZJFjXz3upGkj8s5QRuTlArcjFAE3h/XG13QZbwtamRGeMtayl1yO/IDKemVYZFcN4Um1a+svDV1YyeJJLuQwyX819IxtXiK5kI3nBz/AA7RnOO2a9G0zRbPSbSa3thIfPcyTSSyNI8rkAFmYnJOAB9AKm03T7fSdMttPtFK21tEsUSliSFAwOT1oA4fTPF2szaZGdP023mjg0xL+Zrq8YuwLyjYDtOTiPgnin/8LHkuL9jp+ly3FlFJDG4WGZpn3qjErtQoNoccFgTg9OM3R8PdPOqMzPOumrp8dkkEVzIhZVeRmVyCNyneOD6GtabwjpM1+bsRzxb2RpYYbh44ZWQAKXRSFOAqjp2Gc4oBnIjxZeaVbXN06y3ksCapKiyXBCsIrpUVCOnRsA9gPetK/wDG+oaN9ttdR063N/HJbJbi2keSN/PLhd2E3fL5bZwDnjHWtmbwbos8UkckEhWRLhG/etyJpBJJ37soPtVi/wDDWl6lNdTXULtJcpErOsjKy+UzNGykHKsCxORzS6IOrIfDGu3Gt21ybqze3lt5fL3+XIkcwKghk8xVbHODxwQetbtUdL0m20iGSO3aeRpX8ySW4maV3bAGSzEnoAMdOKvUwCiiigCrqX/ILu/+uD/+gmsD4bf8k18Of9eEX/oNb+pf8gu7/wCuD/8AoJrA+G3/ACTXw5/14Rf+g0AdTRRRQAUUUUAFFFFAHG6j/wAlf0L/ALBN3/6Mirsq43Uf+Sv6F/2Cbv8A9GRV2VABRRRQBwkGm3Gtar4olbXNVtJLS98q2MF2yxxAQRsP3f3SMsSQRzWfb/ErUJdOs2i0wXNymnQXd0qxzEytIpOyPYjAEgZG4gcgepHUXfgrSry8vLiWXUFW9ffcwRXskcUp2hfmVSBgqoB9amvvCOkX0yyGOe3/AHK27raXDwrLEudqOEIBAyQPYkdKEBkT+MdTimv7v+zIP7JsLuG3md5mWciRYzuCbcAr5oyCecH8auieI9auIxpthDBeXqNdXEst7OyKIxcyRoikAkn5SPQADrWpbeCbT+29S1C9aSVLi8juYrdJnWL5I41TemdrEMhI49PSrUvgzR5Y41VbqBk80eZb3UkTssjl3QspBKliTg9O2KAMiLx81zaGWKxUTXVtaz6fE78zGZthVvTY/XHYg01fF+uzXkMcGl2BhudRuNOgZ7lgweIv87Db90iNuBznFap8Lxt4j0m7ENrFp+j27R2UUYO8MwC89toA49znjHN+Lw7psLW7JE4Nvdy3sfzniWTfuPuP3jce9AHIv8RbyRbaC30yP7d5MktypE0iApK8W1DHGx+Zo2ILAADHWrFz451RYr68g0eJbOwtba7uUupWjnCyqWZAu3hlAPX6VtS+C9HdIxGLq3dPNHm291JE7LI5d1LKQSpYk4PTtirD+FdJe1v7byGEN9BHbzKJG5jRSqgc8YBo6AU/Dd3qd7q3iaK+lja3gv8AybbyydyL5SHH/jwP1J9q5e9ZfDet67dzalrl1baVaWlxDbNqErB5JHkXB5OQSqDHPfiu/s9JtbG/vry38xZL1leZTIShYKF3BTwCQADjrgVFc+H9MvZtQkubbzf7QgS3uFZjh0TdtGOx+c8jn8qAOXXxxqq6feu2itJPbtDiWOC4EO12IYkNGHOzGSFByCDxzinP4s1W/m0m5t5rL7I9tfm5S1uGIcxKMEHAKnnOCAQSc9BXUDwdpZtZYZHvpnkdH+0S3kryoUyUKuWyuMnp6nOc0n/CF6MIoVCXG+N5XMpuHLyGVdsm9s5bIA6+gx0oYHPJ421SGwnuIdOt5LLTra0muGluWMrrLGrEL8pyRnqTzV9/F2qNdRXEGnWraVJqo0wSNOwmBEhjaTbtxjcCAM56GtYeEtIFjeWfkyeReRRQzDzGyVjUKoB7cAVhyeCLufxOl7JPBHYx6gNQCRSSgs46AxFtgbPVx19ASTTe4uh3FFFFIYVxcP8AyWu7/wCxfi/9KHrtK4uH/ktd3/2L8X/pQ9AHaUUUUAFFFFABRRRQAVwsUY8Y/EKaaX59H8NyCOFP4Zb4jLOfXy1IA9GYmux1G8TT9Mu72T7lvC8rfRQT/Suc+Gtk1p4A0uWbm5vUN9Ox6tJMTISf++gPwoA6yisvWvEejeHY4pNY1K3skmJWNpn2hiOuKhs/F3h7UEt3tNXtJlufM8ko+d/ljL4/3QQTQBtUVlw+JNFuLGyvodTtntb6YQW0quCsshJAVT65B49qiuPFvh6001tRuNYs4rNZmgMzygL5inBUepGDxQBs0Vlw+I9FuILGeDVLWWK+k8q1dJAwlfBO1SO/B49qtQalZXN/dWMNzHJdWmzz4lPzR7hlcjtkCgDjtSQeD/H1pq0PyaVr8i2l8g+7HdY/dS+27BQ/8BNd3XNfEDTDq3gPWbdOJktmnhYdVkj+dCP+BKK1dB1Iax4e03Uxj/S7WOfjtuUH+tAGhRRRQAUUUUAFcX4//wCP3wd/2MEH/ouWu0ri/H//AB++Dv8AsYIP/RctAHaVBNL5eWZwigcknAFT1l65pyavpF9psn3Lq3eE+25SM0AWvOw4QyDeRkLnkj1xQs28ZWQMM4yDnmvJYdZd1g8d3IbbpJg0+f8A3fLIn/8AIsif98U8alr2iQR6TbTLZvaaYl/I7yQIss8rO8jOZeSgbg7cHnr0oA9Z3t/eNIsu4ZVwwBxwc815lN4r8Ry6rdvG9vbraXFvCLZ7iBYXDqjEsW/eHcXYKVwOB15qz4P1O8HiS60y4Y2lkby/ktQAp+2uJ23gn+HYCDtHJyTnAxQB6IZSoyXxk45PegyEAktgDkknpXI+M9PilvvD1+8s5eHVrZEiEpEQy5yxUcFscZOcdqsa3fW1xBeWWvaZdWmkLJGpvJJU8mY71CqQrFgpOM7gBjOaAOlScSoHjlDoejK2Qfxp29v7xrjfAyG2uvENkfsreVfK++xXbbDfGp2ovO0jHzDJ5Oe+K7CgB29v7xo3t/eNNooAJJxEheWVUQdWdgAPxNDTbE3tIFUfxE4Fc94ng0y6ewt76S0F0zSGyS+QvbtIF53rkBiFJIBI74rM8O2C638KhpTc+ZbT2gk3blYqzKHQ/wBzIBX0GPSgDtPO/eCPzBvIyFzzj1xQsu8ZWQMM4yDmvJk1x2EXxBlDbbIx6fIP9gwnzB/3/dR/wCl/tLX9BhOkWs0dqdN06G5YySwRpNNJueRpDJyU35HyYI55zigD1re3qaRZd4yrhhnGQc15tJ4p8Qy67dNG8NvHa30NsLWSeBYnVghO7d+8LNuO0rxwODzVTQdd1GzttVtzcQ6dFbpqE+nmYBo7pxcSb3cgEgRnb8o5wdxyOKAPVd7epqwOgrifBmsXl9Nf2d/c3EtzbrFJtmELbVcHlZITtdSVJGQCO+ciu1HQUAcZ4p/5KJ4F/wCu95/6Tmu0ri/FP/JRPAv/AF3vP/Sc12lABWZe6lqFtcmO30O6u4wARLHNCoPthnB/StOigDBk1jVjE4Phq/jG0/OLm2yvvzJVTwHr+q+IdCa51TTnt2SQxxXBKhbtASBKFBO3OPoeoJFdQyq6lWUMrDBBGQRQqqihVACgYAA4AoAWiiigDi/hR/yTqw/673X/AKUSV2UhIQkVxvwo/wCSdWH/AF3uv/SiSuxl/wBWaAK5uFAcmVQE++Sw+Xvz6UvnDKjzBlhlRnr9PWvPvEkAXxTPoe3914nFtvA7iJiJ/wA4gg/GsVNVv9PsLy5hUNc+GbQaUryAYR5LgIZDnjiJI254+bnigD13e3940hlwwUuAx6Ank15hceKPEdnA9obhJPMvbeBblri2aaFXR2IYr+7BJRQpYfxdDxVTUde8QRvpl2scV7fWk19EkiSRyssQjQs7iP5WdQT8i4zgdM0Aet72/vGkEpbO1wcHBwc4PpWBqOpXVv4ThutIM2qTzRxrDcRxhyQ2P3xVcAgD5sD2Fc34L1CfTdC1GGw0TVr8x6vcKwcpHIcnJZjIwBOeuOhNHUOh6D9oUSiLzV8wjcE3Ddj1x6U/e39415PZsy62dSvY9Olvf+Eja3MBUi9UFtqMJA33VQg7MbSoJ716tR0DqO3t/eNG9v7xptFADt7f3jTEuFkZlSVWKHDBWB2n0PpTZSFhkZiwUKSSucgY7Y71wHhyLTbPxpp50d7OXTrzSn8g2mRIFVkO+4JyXYk4DHBB3AgkmgD0E3ChXYzKFT75LDC/X0pfO5UeYMsMqM8ke1ee+IbZW8V3Ph4qTB4ke2ldR3SLIuPzSOMf8CrFTWNRtLC4vogGu9Bt4tFMsmMRyPPtkkO7jiNImyePm54oA9e3t/eNIZcMFLgMeQM8mvMZ/E/iK1g+xGdXMmoRWwuftFs00StGzlWI/dKxKgKSOjdCcVRv9f16K40y92xXN3bLqEJnjeOVooAYd0rKnys6DOUXGSB06UAeu72/vGpImJByc15tfeJb6z15CmsNPpUbWiCSBYJNwkC8yodrnfuBDR8DPTgivSYuN1AEOpf8gu7/AOuD/wDoJrA+G3/JNfDn/XhF/wCg1v6l/wAgu7/64P8A+gmsD4bf8k18Of8AXhF/6DQB1NV72ea2tWlt7SS7kBGIo2VSfxYgfrViigDD/tnVv+hXvv8AwJt//jlYkvijXo/G+n6amg3LW13CTcRPLCTbKDxNuVjwckbTjO35eQRXb00RosjSBFDsAGYDkgdMn8TQA6iiigDjdR/5K/oX/YJu/wD0ZFXZVxuo/wDJX9C/7BN3/wCjIq7KgCvJLsfDOFycDJxk+lN88bmXzVynLDcMr9fSsHxrAz+HZ7qMZm0+WO/j+sThz+ahh+NcDdzSqk+s2xbd4xWaziYepcJbn/v1vNAHrqyllDK+VIyCDkGgyMBktgV5qmv61Brc9raPDb2en6jFp0dpLNAkbRDYoyG/eF2BypHHQYPNRab4m17UpEluJYlt7t7qGW1kmgAjVVfARR+93rtGd2c5PA4oe1wR6espZQyvlSMgg5BqH+0LbzfK+2QeZnbs81d2fTGetcV8NdUvL3TI7W/b7NJbWNqILHCkeQYxtm3dWLHI9F24xnk2LjRtM1X4hRqNNs1XSolvp5FgUPLcyFhHubGTtCs31K+lHUOh2Uk4iQvJKqIOrOwAH4mlEhIBDZB5BBrz/wASXd1rNzodrd6SumOb92Qau0ctvIFib7yo53E5+UEg5Ge1bPgAgeD7eEEN5E08O9DmNysrDMf/AEz/ALo7DA7UAdRvb+8aN7f3jTaKAHb2/vGmPcLEVEkypuOF3MBuPoPWlriPGkOkXV+1iba2vNcvLMwxC6YeVZxZOZjn7nJ7fMxUAdMgA7hpdpAZwCxwMnGT6UnnjLjzVyn3huHy/X0rmPE1qbbwfb3CytPJpDW94szHJcREb2z7pv8AzrirhphHLfwlg3jVJLdW9CZQsJ/78Mx/4DQB66JCwBV8gjIIPWgyEAktgDkknpXm1v4h1sa88MDxQ2drqg05bOSaBE8kEKOD+98wr8wxweOMc1TtPE2vapYtNdTRC3voLxJbaSaAeUFjfAjVf3m5SoDBs9T04oe1wW9j1USFgCHyDyCD1pyu24c968q0vxFrP/CJFTdR2F/CLKCKycxrtgZV2ukjAqXkGQC3ygjb1GT2vg/VJdV0h3nnmmnguZIJDPGiOpU/dPlkoxAI+ZeD6CnYDp64uH/ktd3/ANi/F/6UPXaVxcP/ACWu7/7F+L/0oekB2lFFFAGPPq2pxTyRx+HLyZFYhZFngAceoBcH86ytf8Q6xaaDe3K6Ld2TQxGRbh5rdlQjkZXzOQemByc8c4rraa8aSrtkRXXIOGGRkHIP50AZnhvUr/VtAtL7U9Lk0y7lTMlrIwYqfw6Z9DyO9atFFAGF42V38B+IVj++dNuAMevltU/hZkfwjorJjYbCArj08ta0bq3ju7Sa2lGY5kaNh6gjBrlPhlcu3guDTLg/6Zo8smm3C+jRNtX812n8aAMv4j2F7qPijwXBYXRtJjd3GLn7OJhF+5PJVuDnpz61T17Tr6x8U+EYLu5N/PHaan5tylssQYmIYyq8DsPfFeoUUraWHfU+c9A0nVtDtfAdskM0uj6nqNpfHcCTa3C5WRfZWBDfUGtNbe3g8O2V5dz6lplxa65qL2+pQ2P2mG3LORiWPBJDDoQO3WveaKYjwpG1fWtM8MCGKDTJ/wDhIpRBqFrp3lJOvlN/pHksBjccjnriux8B2Oo2Pj/xnHqd8+oXGLLN21uIRJ+7bgKvHHTivRKKAKmqsiaPetJ9wW8hbPptOawvhurL8NfDgbr/AGfEfw2jFM+I+oSWPgXUIrfm8v1FhbKOrSTHYMfmT+FdBpdjHpek2enxf6u1gSFfoqgD+VAFuiiigAooooAK4vx//wAfvg7/ALGCD/0XLXaVxfj/AP4/fB3/AGMEH/ouWgDtKglB31PRQBnfYLQ20lsbSDyJGLPF5Q2MSckkYwSTz9aS606yvmia7sre4aI7ozNErlD6jI4rSooAzZdPspryO8lsreS6i4jmeJS6fRiMinCytQUItYQY5DKn7sfK5zlh6E5OT15NaFFAFKSGOYKJYkfYwddyg7WHQj0I9aWSJJomiljWSNxtZHXIYehB61cooAoW1pb2VusFpbxW8K/djhjCKPwHFS1aooAq0VaooAz7qztr6AwXltDcwkgmOaMOpP0PFSoixoqRoERRhVUYAHoBVuigDO+wWn2Zrb7JB9nZizReUuwknJJGMZzz9aS50+yvZYpbqyt7iSE5jeWJXKH1BI4/CtKigDNk0+ylvY72Szt3u4xhJ2iUyKPZsZFL9htAIx9kgxGzOn7sfKzZ3EccE5OfXJrRooAzbSws9PjMVlZwW0bHcUgiVAT64A61ojoKWigDi/FP/JRPAv8A13vP/Sc12lcX4p/5KJ4F/wCu95/6Tmu0oAKKKKACiiigAooooA4v4Uf8k6sP+u91/wClEldjJyhrjvhR/wAk6sP+u91/6USV2lAFF7eGSaOZ4Y2liz5cjKCyZ64PbPekFrAvnbYIh55zLhB+8OMZb14AHPar9FAGVHpWnQ2T2UWn2iWj/fgWBRG31XGDUkNhaW6wrBaQRLACIhHEFEYPXbgcZ9q0aKAKUMEVtCsMESRRJwqRqFVfoB0ojhjhDCKJE3sXbaoG5j1J9SfWrtFAGcbC0N6L02kH2sLsFx5S+Zt9N2M4qerVFAFWirVFAFXmq9vYWdnJLJa2dvBJMd0rRRKpc+rEDn8a0qKAKLW8LzxztDG00YISQqCyg9QD1GcDNILS3CzKLeILOS0w2DEhIwS3rwAOav0UAZSaVp0di1imn2i2bfet1gURn6rjFSRWNpAsSw2kEawqUiCRBQinqFwOAcDOK0aKAMldI01ZYJV060Eluu2FxAu6IeinHyj6VpQ9DUlFAFXUv+QXd/8AXB//AEE1gfDb/kmvhz/rwi/9Brf1L/kF3f8A1wf/ANBNYHw2/wCSa+HP+vCL/wBBoA6miiigAooooAKKKKAON1H/AJK/oX/YJu//AEZFXZVxuo/8lf0L/sE3f/oyKuyoArSoH3o6hlbIKkZBBqD7HbCOCMW0Pl25BhXyxiMgYBUdsDjitCigDNfT7KS9S9eyt2u0GFnaJTIo9A2MikXTbFLuS7WxtluZV2yTCFQ7j0LYyRWnRQBnpaW0TxvHbRI8cflIyxgFU/uj0HA46U9YY0lklWJFkkxvcKAWx0ye+Ku0UAZ91Z219A0F3bQ3ELcmOaMOp/A8VJHEkMSxRRrHGg2qiLgKPQAdKuUUAVaKtUUAVao3miaTqM3nX2lWN1Ljbvnt0dsemSOlbFFAFLyIvI8jyk8nZs8vaNu3GMY6YxximfZLbbAv2aHbbkGEeWMREDA2/wB3jjjtWhRQBmnT7Jr5b5rK3N4o2i4MS+YB6bsZpq6ZYLczXK2FqJ5lKyyiFQ0gPUMcZI+talFAGZJptjKhSWytnUxCEhoVIMY5CdPu+3SprW2htIo4LaCOGFOFjiQKq/QDgVdooAK4uH/ktd3/ANi/F/6UPXaVxcP/ACWu7/7F+L/0oegDtKKKKACiiigAooooAK4PV5P+EJ8ajX2+XQ9Z2W+ot2t7gfLFMfRWHyMfXaTXeVBe2VtqNlPZXkCT206GOWJxkMp6g0AT5yMiivPobzVPhwRaaitxqXhVeIL9AZJ7BeyTKOWjHZxyBwR0ruLDUbLVbKO80+6huraQZSWFwyn8RQBZooooAKKgvb60060ku725itreMZeWZwqqPcmuGuNU1P4ibrHQjcaf4cbi51dlKSXS90tweQD0Mh/CgCS1kHjfx0l/H8+g+H3ZIH/hur0jDOPVYwSAf7xOOld5VXTdOtNI0230+wgSC0t0CRRoOFA/z1q1QAUUUUAFFFFABXO+MNAu9d06zbTp4odR0+8jvbVpwTGzpkbXxzghiMjkV0VFAHGfb/iL/wBAHw//AODGX/43S/b/AIi/9AHw/wD+DGT/AON12VFAHG/b/iL/ANAHw/8A+DGT/wCN0fb/AIi/9AHw/wD+DGT/AON12VFAHG/b/iL/ANAHw/8A+DGT/wCN0fb/AIi/9AHw/wD+DGT/AON12VFAHG/b/iL/ANAHw/8A+DGT/wCN0fb/AIi/9AHw/wD+DGT/AON12VFAHG/b/iL/ANAHw/8A+DGT/wCN0fb/AIi/9AHw/wD+DGT/AON12VFAHG/b/iL/ANAHw/8A+DGT/wCN0fb/AIi/9AHw/wD+DGT/AON12VFAHG/b/iL/ANAHw/8A+DGT/wCN0fb/AIi/9AHw/wD+DGT/AON12VFAHG/b/iL/ANAHw/8A+DGT/wCN0fb/AIi/9AHw/wD+DGT/AON12VFAHG/b/iL/ANAHw/8A+DGT/wCN0fb/AIi/9AHw/wD+DGT/AON12VFAHG/b/iL/ANAHw/8A+DGT/wCN0fb/AIi/9AHw/wD+DGT/AON12VFAHFWWjeJdX8VabrPiNNNs4dLWX7NbWUrymSSRdpZ2ZRgBc4AHU12tFFABRRRQAUUUUAFFFFAHAaZpPjTwlBLpWjWuj6jpazyS2r3NzJDLGruXKMArA4LHkdqu/b/iL/0AfD//AIMZP/jddlRQBxv2/wCIv/QB8P8A/gxk/wDjdH2/4i/9AHw//wCDGT/43XZUUAcb9v8AiL/0AfD/AP4MZP8A43R9v+Iv/QB8P/8Agxk/+N12VFAHG/b/AIi/9AHw/wD+DGT/AON0fb/iL/0AfD//AIMZP/jddlRQBxv2/wCIv/QB8P8A/gxk/wDjdH2/4i/9AHw//wCDGT/43XZUUAcb9v8AiL/0AfD/AP4MZP8A43R9v+Iv/QB8P/8Agxk/+N12VFAHG/b/AIi/9AHw/wD+DGT/AON0fb/iL/0AfD//AIMZP/jddlRQBxv2/wCIv/QB8P8A/gxk/wDjdH2/4i/9AHw//wCDGT/43XZUUAcb9v8AiL/0AfD/AP4MZP8A43R9v+Iv/QB8P/8Agxk/+N12VFAHG/b/AIi/9AHw/wD+DGT/AON0fb/iL/0AfD//AIMZP/jddlRQBw93J8Rr+0mtBpnh6089DGbj7bLJ5YIwWC+WMkema6fQdIi0Dw/p+kQyNJHZ26QB26ttGM/jWjRQAUUUUAFFFFABRRRQByvibQ9Xm1vTPEGgPaNqFlHLA9teFljmik2kjcoJVgVBBxVf7f8AEX/oA+H/APwYyf8AxuuyooA437f8Rf8AoA+H/wDwYyf/ABuj7f8AEX/oA+H/APwYyf8AxuuyooA437f8Rf8AoA+H/wDwYyf/ABuj7f8AEX/oA+H/APwYyf8AxuuyooA437f8Rf8AoA+H/wDwYyf/ABuj7f8AEX/oA+H/APwYyf8AxuuyooA437f8Rf8AoA+H/wDwYyf/ABuj7f8AEX/oA+H/APwYyf8AxuuyooA437f8Rf8AoA+H/wDwYyf/ABuj7f8AEX/oA+H/APwYyf8AxuuyooA437f8Rf8AoA+H/wDwYyf/ABuj7f8AEX/oA+H/APwYyf8AxuuyooA437f8Rf8AoA+H/wDwYyf/ABuj7f8AEX/oA+H/APwYyf8AxuuyooA437f8Rf8AoA+H/wDwYyf/ABuj7f8AEX/oA+H/APwYyf8AxuuyooA437f8Rf8AoA+H/wDwYyf/ABuj7f8AEX/oA+H/APwYyf8AxuuyooA437f8Rf8AoA+H/wDwYyf/ABupvDmh6z/wkd94k8QtZx3s9slnDbWbMyRRKxblmALMWb0GK6yigAooooAKKKKACiiigAooooACMjB6VyN78O9IkvHv9ImvNCvnOXm0uXylkP8Atx8o34iuuooA4saL4+tPltvFunXiDp9u0vDfiY3AP5UHR/iBdfLceLNMs0PU2Wl7m/AyOQPyrtKKAOPtfhzpRu473XLm91+8jO5H1OXfGh/2YgAg/KuvACqFUAADAA7UtFABRRRQAUUUUAFFFFABRRRQAUUUUAFFFFABRRRQAUUUUAFFFFABRRRQAUUUUAFFFFABRRRQAUUUUAFFFFABRRRQAUUUUAFFFFABRRRQAUUUUAFFFFABRRRQAUUUUAFFFFABRRRQAUUUUAFFFFABRRRQAUUUUAFFFFABRRRQAUUUUAFFFFABRRRQAUUUUAFFFFABRRRQAUUUUAFFFFABRRRQAUUUUAFFFFABRRRQAUUUUAFFFFABRRRQAUUUUAFFFFABRRRQAUUUUAFFFFABRRRQAUUUUAf/2Q==;strokeColor=none;labelBackgroundColor=none;rounded=0;html=1;whiteSpace=wrap;" parent="1" vertex="1">
          <mxGeometry x="-160" width="2305" height="1246.53" as="geometry" />
        </mxCell>
      </root>
    </mxGraphModel>
  </diagram>
</mxfile>
